<svg xmlns="http://www.w3.org/2000/svg" width="2009" height="2009" viewBox="0 0 2009 2009">
  <defs>
    <style>
      .cls-1 {
        fill: #840090;
      }

      .cls-1, .cls-2, .cls-3, .cls-4 {
        fill-rule: evenodd;
      }

      .cls-2 {
        fill: #ffd5a5;
      }

      .cls-3 {
        fill: #f0f;
      }

      .cls-4 {
        fill: #f1f1f1;
      }
    </style>
  </defs>
  <path class="cls-1" d="M1021.26,931.213c464.31,268.067,781.95,587.137,709.48,712.657s-507.61,9.97-971.919-258.1S-23.135,798.631,49.335,673.109,556.95,663.145,1021.26,931.213Zm0,0c464.31,268.067,781.95,587.137,709.48,712.657s-507.61,9.97-971.919-258.1S-23.135,798.631,49.335,673.109,556.95,663.145,1021.26,931.213Zm0,0c464.31,268.067,781.95,587.137,709.48,712.657s-507.61,9.97-971.919-258.1S-23.135,798.631,49.335,673.109,556.95,663.145,1021.26,931.213Zm0,0c464.31,268.067,781.95,587.137,709.48,712.657s-507.61,9.97-971.919-258.1S-23.135,798.631,49.335,673.109,556.95,663.145,1021.26,931.213Z"/>
  <path id="Color_Fill_2" data-name="Color Fill 2" class="cls-2" d="M396.053,605.969Q920.425,1129.708,1444.9,1653.55q-4.44,4.44-8.87,8.88c-15.54,31.86-95.03,87.9-126.83,109.07-84.18,56.04-175.3,94.12-292.97,119.22-178.774,38.12-379.552-21.12-488.278-84.98C355.28,1704.33,233.36,1556.93,174.107,1341.56c-19.359-70.37-35.292-180.65-19.024-270.14,8.52-46.87,14.733-91.385,27.9-133.167,31.342-99.441,80.732-181.626,138.24-254.92Z"/>
  <path id="Color_Fill_1" data-name="Color Fill 1" class="cls-3" d="M848.821,417c394.719-6.377,632.9,208.32,741.929,487.011,92.86,237.35,26.91,503.19-82.43,667.1-18.71,28.04-37.88,61.22-63.42,82.44q-400.095-400.095-800.269-800.27l-187.7-187.7c-10.522-10.52-60.051-53.947-57.072-63.413l57.072-45.658a789.07,789.07,0,0,1,145.85-82.437c46.575-20.041,98.073-33.715,152.191-45.657Z"/>
  <path id="Color_Fill_4" data-name="Color Fill 4" class="cls-1" d="M1516.19,1557.43c13.6-25.21,51.99-86.41,66.81-130.43,5.77-17.13,14.86-44.89,19-60,2.11,1.69,5.93,4.84,8.05,6.53q25.35,27.9,50.73,55.81c23.36,32.83,91.4,126.85,79.9,186.43-14.23,73.67-104.86,87.45-199.12,74.83-101.36-13.57-195.07-41.12-282.82-72.29-155.79-55.34-306.894-123.94-442.625-200.39C618.977,1306.89,440.4,1186.47,275.836,1043.79c-44.377-38.48-99.318-79.6-130.631-130.634l-15.219-13.951c-23.579-30.532-50.653-62.558-67.217-98.924C43.625,758.253,25.647,701.519,56.427,659.5c33.316-45.476,164.346-44.716,235.9-29.169l62.144,15.219c-8.978,12.008-22.381,20.374-31.706,31.706-31.87,38.731-66.219,85.7-87.51,133.167C609.174,1209.26,1210.61,1487.96,1516.19,1557.43Z"/>
  <path id="Color_Fill_3" data-name="Color Fill 3" class="cls-4" d="M784.14,106.275l192.775,408.38H593.9Zm777.44,859.88q204.18,95.737,408.38,191.505c-0.42.85-.84,1.69-1.27,2.54q-203.535,94.47-407.11,188.97V966.155Z"/>
</svg>
